<?xml version="1.0" encoding="UTF-8"?>
<svg width="48" height="48" version="1.1"
    xmlns="http://www.w3.org/2000/svg"
    xmlns:xlink="http://www.w3.org/1999/xlink">
    <defs>
        <linearGradient id="f" x1="585" x2="585" y1="390.61" y2="85.377" gradientTransform="matrix(.15426 0 0 .15349 -67.321 -12.481)" gradientUnits="userSpaceOnUse">
            <stop offset="0"/>
            <stop stop-color="#141413" offset="1"/>
        </linearGradient>
    </defs>
    <rect x="1.0162" y="1.2747" width="45.815" height="45.586" ry="8.0042" stroke="url(#f)" stroke-linecap="round" stroke-width="1.2311"/>
    <g transform="matrix(1.2366 0 0 1.2305 -5.7556 -1.4643)" fill="#99cbf3">
        <path d="m29.488 20.75c0 2.6565-2.832 5.6158-5.4884 5.6158s-5.3034-2.9593-5.3034-5.6158c0-1.4861 0.46107-2.6891 1.1926-3.594 2.8076-3.4732 9.5993-2.5565 9.5993 3.594z"/>
        <path d="m22.304 10.513c-4.169 1.107-8.8603 5.7197-8.8603 10.235 0 4.516 4.6913 9.1329 8.8603 10.239-4.1409-4.5935-5.7168-5.7883-5.7168-10.151s0.87811-4.4139 5.7168-10.322zm3.3923 0c2.0475 2.0513 5.8028 6.4863 5.8028 10.848 0 4.363-2.6456 4.7688-6.6131 9.6253 4.17-1.107 9.6698-5.7229 9.6698-10.239 0-4.515-4.6915-9.1277-8.8595-10.235z"/>
        <path d="m20.09 6.034c-6.51 1.728-12.929 7.662-12.929 14.713s6.417 12.991 12.927 14.72c-3.9559-3.2857-8.8805-7.907-8.8805-14.72s4.6779-11.055 8.8805-14.713zm7.821 0c3.7708 2.7279 8.8803 7.9 8.8803 14.713s-5.2328 11.558-8.8803 14.72c6.51-1.729 12.928-7.669 12.928-14.72s-6.4176-12.985-12.928-14.713z"/>
    </g>
</svg>